# xmcd CD database file
# Copyright (C) 1995-1998 Ti Kan
#
# Track frame offsets:
#	150
#	16962
#	35370
#	53467
#	73597
#	89407
#	92317
#	115622
#	138382
#	150672
#	171160
#	193237
#	217532
#	228752
#	251865
#
# Disc length: 3544 seconds
#
# Revision: 1
# Processed by: cddbd v1.4b41PL1 Copyright (c) Steve Scherf et al.
# Submitted via: CDex 1.30Release
#
DISCID=b60dd60f
DTITLE=Electric Blues Duo - Out On The Highway
DYEAR=1995
DGENRE=Blues
TTITLE0=You Gonna Suffer
TTITLE1=Steady Rollin' Man
TTITLE2=White Lady
TTITLE3=My Jug And I
TTITLE4=Texas
TTITLE5=Make Mine A Double
TTITLE6=Going Down Slow
TTITLE7=B&O
TTITLE8=Last Fair Deal
TTITLE9=San Fransisco Bay Blues
TTITLE10=No Money Down
TTITLE11=Sweet Home Chicago
TTITLE12=Bitch
TTITLE13=Louise
TTITLE14=Roberta
EXTD=YEAR: 1995 ID3G:   0
EXTT0=
EXTT1=
EXTT2=
EXTT3=
EXTT4=
EXTT5=
EXTT6=
EXTT7=
EXTT8=
EXTT9=
EXTT10=
EXTT11=
EXTT12=
EXTT13=
EXTT14=
PLAYORDER=
